<?xml version="1.0" encoding="UTF-8"?>
<svg id="Layer_1" data-name="Layer 1" xmlns="http://www.w3.org/2000/svg" viewBox="0 0 1516 479">
  <defs>
    <style>
      .cls-1 {
        opacity: .5;
      }

      .cls-1, .cls-2 {
        fill: #eaecec;
        isolation: isolate;
      }

      .cls-2 {
        opacity: .25;
      }
    </style>
  </defs>
  <path class="cls-2" d="M208.33,135.49c30.89,2.22,46.7,9.28,59.78,14.4,29.09,11.39,49.02,23.5,77.13,34.97,11.4,4.65,23.6,9.58,43.6,13.2,8.29,1.5,20.17,3.15,32.51,2.55,13.92-.68,23.75-3.36,31.37-5.42,17.26-4.67,30.14-9.84,42.59-14.99,51.42-21.27,89.69-43.54,140.71-64.83,14.63-6.11,29.57-12.3,50.88-17.72,7.79-1.98,17.97-4.46,31.84-4.97,25.37-.92,45.7,3.61,59.08,6.97,33.91,8.51,54.04,18.58,85.54,27.38,15.61,4.36,40.75,10.62,73.27,8.46-30.59-1.94-46.12-8.94-58.68-13.89-28.36-11.19-47.6-23.09-75.53-34.31-11.4-4.58-23.74-9.43-43.95-12.92-8.63-1.49-20.81-3.05-33.24-2.42-14.21.73-24.3,3.4-32.24,5.51-17.63,4.67-30.86,9.86-43.61,15.04-52.15,21.17-90.5,43.41-140.94,64.72-14.37,6.07-28.96,12.24-49.88,17.64-7.54,1.95-17.5,4.44-31.15,4.92-25.31.89-45.35-3.84-58.38-7.19-35.82-9.2-56.61-20.09-91.64-29.39-15.12-4.02-39.09-9.53-69.05-7.72ZM360.23,157.25c11.48,4.66,23.77,9.59,43.86,13.2,8.35,1.5,20.3,3.15,32.69,2.55,13.97-.68,23.85-3.36,31.51-5.42,17.32-4.66,30.26-9.84,42.77-14.99,51.62-21.26,90.02-43.54,141.24-64.83,14.69-6.11,29.69-12.31,51.09-17.72,7.84-1.98,18.07-4.46,31.98-4.97,25.46-.92,45.9,3.6,59.4,6.97,34.09,8.51,54.38,18.58,86.06,27.38,15.76,4.38,41.04,10.62,73.67,8.46-30.69-1.94-46.36-8.93-59.03-13.89-28.54-11.18-47.91-23.09-76.02-34.31-11.48-4.59-23.92-9.44-44.21-12.92-8.7-1.49-20.93-3.05-33.42-2.42-14.25.72-24.4,3.4-32.39,5.51-17.69,4.67-30.99,9.86-43.79,15.04-52.35,21.17-90.84,43.41-141.47,64.72-14.43,6.07-29.09,12.24-50.08,17.65-7.6,1.96-17.6,4.44-31.3,4.92-25.4.89-45.56-3.83-58.7-7.19-36.02-9.2-56.97-20.1-92.19-29.39-15.26-4.03-39.35-9.52-69.42-7.72,30.99,2.21,46.94,9.27,60.13,14.4,29.26,11.39,49.34,23.5,77.62,34.97ZM954.5,107.88h0s0,0,0,0h0ZM244.75,25.05c-31.01-1.92-47.06-8.89-60.06-13.89C175.18,7.5,166.67,3.77,158.51,0h-39.69c16.54,5.58,31.75,11.32,51.06,16.59,16.21,4.42,41.9,10.61,74.87,8.46ZM1245.03,191.79c-31.49,8.8-51.62,18.87-85.53,27.38-13.39,3.36-33.72,7.89-59.08,6.97-13.87-.5-24.05-2.99-31.84-4.97-21.32-5.42-36.25-11.62-50.88-17.72-51.03-21.3-89.29-43.57-140.71-64.83-12.46-5.15-25.34-10.33-42.6-14.99-7.61-2.06-17.44-4.74-31.37-5.42-12.34-.6-24.22,1.05-32.51,2.55-20.01,3.62-32.2,8.55-43.6,13.2-28.11,11.47-48.04,23.58-77.13,34.97-13.08,5.12-28.9,12.18-59.78,14.4,29.97,1.81,53.93-3.7,69.05-7.72,35.03-9.3,55.82-20.19,91.64-29.39,13.03-3.35,33.07-8.08,58.38-7.19,13.65.48,23.61,2.97,31.15,4.92,20.92,5.41,35.51,11.57,49.88,17.64,50.44,21.31,88.79,43.55,140.95,64.72,12.75,5.18,25.99,10.37,43.61,15.04,7.95,2.1,18.04,4.78,32.25,5.51,12.43.64,24.6-.92,33.24-2.42,20.2-3.49,32.54-8.34,43.95-12.92,27.92-11.22,47.16-23.12,75.52-34.31,12.56-4.96,28.1-11.95,58.69-13.89h0c-32.53-2.16-57.66,4.1-73.28,8.46ZM65.32,16.82c34.45,8.5,55.07,18.59,87.1,27.38,16.06,4.41,41.61,10.61,74.47,8.46h0c-30.9-1.93-46.82-8.9-59.71-13.89-28.88-11.18-48.55-23.09-77-34.31C86.43,2.98,82.58,1.48,78.4,0H0v10.14c1.7-.13,3.46-.23,5.28-.29,25.64-.91,46.31,3.58,60.04,6.97ZM1279.95,247c-31.85,8.79-52.3,18.88-86.57,27.38-13.62,3.38-34.18,7.89-59.73,6.97-13.95-.5-24.23-2.98-32.12-4.97-21.47-5.41-36.54-11.61-51.29-17.72-51.4-21.29-89.95-43.57-141.76-64.83-12.56-5.15-25.55-10.33-42.95-14.99-7.71-2.07-17.64-4.74-31.66-5.42-12.44-.6-24.44,1.05-32.86,2.55-20.18,3.61-32.56,8.54-44.12,13.2-28.45,11.47-48.68,23.58-78.11,34.97-13.3,5.14-29.37,12.19-60.47,14.4,30.17,1.81,54.4-3.68,69.79-7.72,35.4-9.29,56.53-20.2,92.74-29.39,13.26-3.37,33.53-8.08,59.02-7.19,13.74.48,23.8,2.96,31.44,4.92,21.08,5.4,35.8,11.57,50.29,17.65,50.82,21.31,89.45,43.55,141.99,64.72,12.85,5.18,26.2,10.37,43.96,15.04,8.04,2.11,18.24,4.79,32.54,5.51,12.53.63,24.82-.92,33.59-2.42,20.38-3.48,32.9-8.34,44.47-12.92,28.27-11.22,47.8-23.13,76.51-34.31,12.78-4.98,28.57-11.96,59.37-13.89-32.75-2.15-58.16,4.07-74.08,8.46ZM1262.49,219.39c-31.67,8.79-51.96,18.87-86.05,27.38-13.5,3.37-33.95,7.89-59.41,6.97-13.91-.5-24.14-2.98-31.98-4.97-21.39-5.42-36.39-11.61-51.08-17.72-51.22-21.29-89.62-43.57-141.24-64.83-12.51-5.15-25.45-10.33-42.77-14.99-7.66-2.06-17.54-4.74-31.51-5.42-12.39-.6-24.33,1.05-32.69,2.55-20.09,3.62-32.38,8.55-43.86,13.2-28.28,11.47-48.36,23.58-77.62,34.97-13.19,5.13-29.13,12.19-60.13,14.4,30.07,1.81,54.16-3.69,69.42-7.72,35.22-9.29,56.17-20.19,92.19-29.39,13.14-3.36,33.3-8.08,58.7-7.19,13.7.48,23.7,2.97,31.3,4.92,21,5.4,35.65,11.57,50.08,17.64,50.63,21.31,89.12,43.55,141.47,64.73,12.8,5.18,26.09,10.37,43.79,15.04,7.99,2.11,18.14,4.79,32.38,5.51,12.49.64,24.72-.92,33.42-2.42,20.3-3.49,32.73-8.34,44.21-12.92,28.1-11.22,47.48-23.12,76.02-34.31,12.67-4.97,28.34-11.96,59.03-13.89h0c-32.64-2.16-57.91,4.09-73.68,8.46ZM45.74,139.03c13.65.48,23.61,2.97,31.15,4.92,20.92,5.41,35.51,11.57,49.88,17.64,50.44,21.31,88.79,43.55,140.94,64.72,12.75,5.18,25.99,10.37,43.61,15.04,7.94,2.1,18.04,4.78,32.24,5.51,12.43.64,24.61-.92,33.24-2.42,20.21-3.49,32.55-8.34,43.95-12.92,27.93-11.22,47.16-23.12,75.53-34.31,12.56-4.96,28.1-11.95,58.68-13.89-32.52-2.16-57.66,4.1-73.27,8.46-31.49,8.8-51.62,18.87-85.54,27.38-13.39,3.36-33.72,7.89-59.08,6.97-13.87-.5-24.05-2.99-31.84-4.97-21.32-5.42-36.25-11.62-50.88-17.72-51.02-21.3-89.29-43.57-140.71-64.83-12.46-5.15-25.34-10.33-42.59-14.99-7.61-2.06-17.44-4.74-31.37-5.42-12.34-.6-24.22,1.05-32.51,2.55-2.51.45-4.9.93-7.18,1.42v21.04c12.1-2.57,27.55-4.83,45.74-4.19ZM91.93,221.85c13.79.48,23.89,2.96,31.59,4.92,21.15,5.4,35.94,11.57,50.49,17.65,51.01,21.3,89.78,43.56,142.52,64.72,12.91,5.18,26.31,10.38,44.14,15.04,8.09,2.12,18.34,4.79,32.68,5.51,12.59.63,24.94-.92,33.77-2.42,20.47-3.48,33.09-8.33,44.73-12.92,28.44-11.22,48.11-23.13,77-34.31,12.89-4.99,28.82-11.96,59.72-13.89h0c-32.86-2.15-58.41,4.06-74.47,8.46-32.03,8.79-52.64,18.88-87.1,27.38-13.74,3.39-34.41,7.89-60.04,6.97-14-.5-24.33-2.97-32.27-4.97-21.55-5.41-36.68-11.61-51.49-17.72-51.59-21.29-90.28-43.58-142.29-64.83-12.61-5.16-25.66-10.33-43.12-14.99-7.76-2.07-17.74-4.75-31.8-5.42-12.49-.6-24.55,1.04-33.04,2.55-20.27,3.61-32.74,8.54-44.38,13.2-2.93,1.18-5.76,2.36-8.54,3.55v18.4c9.91-3.34,20.4-6.61,32.59-9.69,13.38-3.38,33.75-8.08,59.34-7.19ZM61.14,166.64c13.7.48,23.7,2.97,31.3,4.92,20.99,5.4,35.65,11.57,50.08,17.64,50.63,21.31,89.12,43.55,141.47,64.73,12.8,5.18,26.1,10.37,43.79,15.04,7.99,2.11,18.14,4.79,32.39,5.51,12.48.64,24.72-.92,33.42-2.42,20.29-3.49,32.73-8.34,44.21-12.92,28.1-11.22,47.48-23.12,76.02-34.31,12.67-4.97,28.34-11.96,59.03-13.89h0c-32.63-2.16-57.91,4.09-73.67,8.46-31.67,8.79-51.97,18.87-86.06,27.38-13.5,3.37-33.95,7.89-59.4,6.97-13.91-.5-24.14-2.98-31.98-4.97-21.4-5.42-36.39-11.61-51.09-17.72-51.21-21.29-89.62-43.57-141.24-64.83-12.51-5.15-25.45-10.33-42.77-14.99-7.66-2.06-17.54-4.74-31.51-5.42-12.39-.6-24.33,1.05-32.69,2.55-8.77,1.58-16.05,3.41-22.43,5.35v20.74c.81-.21,1.61-.42,2.43-.63,13.14-3.36,33.3-8.08,58.7-7.19ZM76.53,194.24c13.74.48,23.8,2.96,31.44,4.92,21.07,5.4,35.8,11.57,50.29,17.65,50.82,21.31,89.45,43.55,141.99,64.72,12.85,5.18,26.2,10.37,43.96,15.04,8.04,2.11,18.24,4.79,32.54,5.51,12.53.63,24.83-.92,33.59-2.42,20.38-3.48,32.91-8.34,44.47-12.92,28.27-11.22,47.8-23.13,76.51-34.31,12.78-4.98,28.58-11.96,59.37-13.89-32.74-2.15-58.16,4.07-74.07,8.46-31.85,8.79-52.3,18.88-86.58,27.38-13.62,3.38-34.18,7.89-59.72,6.97-13.96-.5-24.24-2.98-32.13-4.97-21.47-5.41-36.54-11.61-51.29-17.72-51.4-21.29-89.95-43.57-141.76-64.83-12.56-5.15-25.55-10.33-42.95-14.99-7.71-2.07-17.64-4.74-31.66-5.42-12.44-.6-24.44,1.05-32.86,2.55-16.51,2.95-27.79,6.79-37.68,10.64v19.71c5.49-1.67,11.27-3.3,17.51-4.89,13.26-3.37,33.53-8.08,59.02-7.19ZM209.03,80.27s0,0,0,0c0,0,0,0,0,0h0ZM134.96,71.81c15.91,4.39,41.32,10.61,74.06,8.46-30.79-1.93-46.58-8.91-59.36-13.89-28.71-11.18-48.24-23.09-76.51-34.31-11.56-4.59-24.09-9.44-44.47-12.92-7.61-1.3-17.89-2.64-28.68-2.56v20.82c20.31.5,36.84,4.16,48.38,7.02,34.27,8.5,54.73,18.59,86.58,27.38ZM117.5,99.42c15.76,4.38,41.04,10.62,73.67,8.46h0c-30.69-1.94-46.36-8.93-59.03-13.89-28.54-11.18-47.91-23.09-76.02-34.31-11.48-4.58-23.92-9.44-44.21-12.92-3.47-.6-7.52-1.2-11.91-1.67v21.08c12.7,1.43,23.33,3.86,31.44,5.88,34.09,8.51,54.38,18.59,86.06,27.38ZM100.04,127.03c15.61,4.36,40.75,10.62,73.27,8.46-30.59-1.94-46.12-8.94-58.68-13.89-28.36-11.19-47.6-23.09-75.53-34.31-10.46-4.2-21.72-8.63-39.1-12.02v21.1c5.47,1.08,10.32,2.24,14.5,3.29,33.91,8.51,54.04,18.58,85.54,27.38ZM297.11,94.67c29.43,11.39,49.66,23.5,78.11,34.97,11.56,4.66,23.94,9.59,44.12,13.2,8.42,1.51,20.42,3.15,32.86,2.55,14.02-.67,23.95-3.35,31.66-5.42,17.39-4.66,30.38-9.84,42.95-14.99,51.81-21.26,90.36-43.54,141.76-64.83,14.75-6.11,29.82-12.31,51.29-17.72,7.89-1.99,18.17-4.47,32.13-4.97,25.55-.92,46.1,3.59,59.72,6.97,34.27,8.5,54.73,18.59,86.58,27.38,15.91,4.39,41.32,10.61,74.06,8.46-30.79-1.93-46.58-8.91-59.36-13.89-28.71-11.18-48.23-23.09-76.51-34.31-11.56-4.59-24.09-9.44-44.47-12.92-8.76-1.5-21.06-3.05-33.59-2.42-14.29.72-24.49,3.4-32.53,5.51-17.76,4.67-31.11,9.86-43.96,15.04-52.54,21.17-91.17,43.42-141.99,64.72-14.49,6.07-29.21,12.24-50.29,17.64-7.64,1.96-17.7,4.44-31.44,4.92-25.5.89-45.76-3.82-59.02-7.19-36.21-9.19-57.33-20.1-92.74-29.39-15.4-4.04-39.62-9.52-69.79-7.72,31.1,2.21,47.17,9.26,60.47,14.4ZM1008.08,25.05h0c-31-1.92-47.05-8.89-60.05-13.89-9.51-3.66-18.02-7.39-26.18-11.16h-39.69c16.54,5.58,31.75,11.32,51.06,16.59,16.21,4.42,41.9,10.61,74.87,8.46ZM1158.53,74.42c11.72,4.67,24.28,9.6,44.65,13.2,8.54,1.51,20.66,3.15,33.21,2.55,14.1-.67,24.14-3.34,31.95-5.42,17.52-4.66,30.63-9.84,43.29-14.99,52.2-21.25,91.03-43.55,142.82-64.83,4-1.64,8.02-3.29,12.18-4.93h-40.47c-33.98,15.58-64.51,31.43-101.41,46.78-14.61,6.08-29.46,12.25-50.69,17.64-7.75,1.97-17.91,4.45-31.74,4.92-25.67.89-46.17-3.8-59.66-7.19-36.59-9.19-58.05-20.11-93.83-29.39-15.67-4.07-40.16-9.52-70.54-7.72,31.31,2.2,47.64,9.23,61.15,14.4,29.78,11.38,50.3,23.5,79.09,34.97ZM529.33,7.35c14.24-.67,24.43-3.33,32.39-5.42,2.41-.63,4.74-1.28,7-1.93h-94.36c6.15,1.74,13.08,3.37,21.24,4.8,8.74,1.52,21.04,3.15,33.73,2.55ZM480.35,32.4c8.67,1.52,20.92,3.15,33.56,2.55,14.2-.67,24.34-3.34,32.24-5.42,17.66-4.65,30.87-9.83,43.65-14.99,11.89-4.8,23.08-9.66,33.89-14.54h-42.06c-8.73,3.2-18.35,6.32-29.82,9.21-7.85,1.98-18.11,4.45-32.03,4.92-25.86.88-46.57-3.78-60.3-7.19-8.97-2.23-17.05-4.56-24.65-6.94h-42.94c13.86,6.45,27.33,12.92,43.29,19.2,11.88,4.67,24.62,9.61,45.17,13.2ZM1282.66,7.35c14.24-.67,24.43-3.33,32.39-5.42,2.41-.63,4.74-1.28,7-1.93h-94.36c6.15,1.74,13.08,3.37,21.24,4.8,8.74,1.52,21.04,3.15,33.73,2.55ZM1173.52,46.81c11.8,4.67,24.45,9.6,44.91,13.2,8.61,1.52,20.79,3.15,33.38,2.55,14.15-.67,24.24-3.34,32.1-5.42,17.59-4.65,30.75-9.83,43.47-14.99C1361.4,28.36,1389.76,14.12,1419.7,0h-35.99c-13.78,6.44-27.94,12.85-43.2,19.17-14.67,6.08-29.59,12.25-50.9,17.65-7.8,1.97-18.01,4.45-31.88,4.92-25.77.88-46.37-3.79-59.98-7.19-36.78-9.18-58.41-20.11-94.38-29.39-6.56-1.69-14.67-3.61-24.06-5.16h-25.3c18.17,3.15,29.84,8,39.94,11.84,29.95,11.38,50.62,23.51,79.58,34.97ZM1233.68,32.4c8.67,1.52,20.91,3.15,33.56,2.55,14.19-.67,24.33-3.34,32.24-5.42,17.66-4.65,30.87-9.83,43.64-14.99,11.89-4.8,23.08-9.66,33.89-14.54h-42.06c-8.73,3.2-18.35,6.32-29.81,9.21-7.85,1.98-18.11,4.45-32.03,4.92-25.86.88-46.57-3.78-60.3-7.19-8.97-2.23-17.04-4.56-24.65-6.94h-42.94c13.86,6.45,27.33,12.92,43.29,19.2,11.88,4.67,24.62,9.61,45.17,13.2ZM107.33,249.46c13.83.48,23.99,2.96,31.73,4.92,21.23,5.4,36.08,11.57,50.69,17.65,51.2,21.3,90.12,43.56,143.04,64.72,12.96,5.18,26.42,10.38,44.31,15.04,8.14,2.12,18.44,4.79,32.83,5.51,12.64.63,25.05-.91,33.94-2.42,20.56-3.48,33.27-8.33,44.99-12.92,28.61-11.22,48.43-23.13,77.49-34.31,13-5,29.05-11.97,60.06-13.89-32.97-2.15-58.66,4.04-74.87,8.46-32.21,8.78-52.98,18.88-87.61,27.38-13.85,3.4-34.64,7.89-60.36,6.97-14.05-.5-24.43-2.97-32.42-4.97-21.63-5.41-36.83-11.61-51.7-17.72-51.78-21.29-90.61-43.58-142.81-64.83-12.67-5.16-25.77-10.33-43.3-14.99-7.81-2.08-17.84-4.75-31.95-5.42-12.54-.6-24.66,1.04-33.21,2.55-20.36,3.6-32.92,8.54-44.65,13.2-8.41,3.35-16.1,6.75-23.53,10.18v16.9c14.56-5.09,29.18-10.17,47.66-14.81,13.49-3.39,33.98-8.07,59.66-7.19ZM1332.34,329.83c-32.39,8.78-53.33,18.89-88.14,27.38-13.97,3.41-34.87,7.89-60.68,6.97-14.09-.5-24.53-2.96-32.57-4.97-21.71-5.4-36.97-11.61-51.9-17.72-51.97-21.29-90.94-43.58-143.34-64.83-12.72-5.16-25.88-10.34-43.47-14.99-7.86-2.08-17.95-4.75-32.1-5.42-12.59-.6-24.77,1.04-33.39,2.55-20.45,3.6-33.1,8.53-44.91,13.2-28.96,11.46-49.63,23.59-79.58,34.97-13.62,5.18-30.08,12.2-61.5,14.4,30.49,1.8,55.1-3.64,70.91-7.72,35.97-9.28,57.6-20.21,94.38-29.39,13.61-3.4,34.21-8.07,59.98-7.19,13.88.48,24.09,2.95,31.88,4.92,21.31,5.39,36.23,11.57,50.9,17.64,51.39,21.3,90.45,43.56,143.57,64.72,13.01,5.18,26.53,10.38,44.49,15.04,8.18,2.12,18.54,4.79,32.97,5.51,12.69.63,25.16-.91,34.11-2.42,20.65-3.47,33.45-8.33,45.26-12.92,28.78-11.21,48.75-23.13,77.98-34.31,13.11-5.01,29.29-11.97,60.4-13.89h0c-33.08-2.14-58.92,4.03-75.27,8.46ZM420.19,46.81c11.8,4.67,24.45,9.6,44.91,13.2,8.61,1.52,20.79,3.15,33.39,2.55,14.15-.67,24.24-3.34,32.1-5.42,17.59-4.65,30.75-9.83,43.47-14.99C608.07,28.36,636.43,14.12,666.36,0h-36c-13.78,6.44-27.94,12.85-43.2,19.17-14.67,6.08-29.59,12.25-50.9,17.65-7.79,1.97-18,4.45-31.88,4.92-25.77.88-46.37-3.79-59.98-7.19-36.78-9.18-58.41-20.11-94.38-29.39-6.56-1.69-14.67-3.61-24.06-5.16h-25.3c18.17,3.15,29.84,8,39.94,11.84,29.95,11.38,50.62,23.51,79.58,34.97ZM1314.88,302.22c-32.21,8.78-52.99,18.88-87.62,27.38-13.85,3.4-34.64,7.89-60.36,6.97-14.05-.5-24.43-2.97-32.42-4.97-21.63-5.41-36.82-11.61-51.7-17.72-51.78-21.29-90.61-43.58-142.81-64.83-12.67-5.16-25.77-10.33-43.29-14.99-7.81-2.08-17.85-4.75-31.95-5.42-12.54-.6-24.66,1.04-33.21,2.55-20.36,3.6-32.92,8.54-44.65,13.2-28.79,11.46-49.31,23.58-79.09,34.97-13.51,5.16-29.84,12.2-61.15,14.4,30.38,1.8,54.87-3.65,70.54-7.72,35.78-9.29,57.25-20.21,93.84-29.39,13.49-3.39,33.98-8.07,59.66-7.19,13.83.48,23.99,2.96,31.73,4.92,21.23,5.4,36.08,11.57,50.69,17.65,51.2,21.3,90.11,43.56,143.04,64.72,12.96,5.18,26.42,10.38,44.31,15.04,8.14,2.12,18.44,4.79,32.83,5.51,12.63.63,25.05-.91,33.94-2.42,20.56-3.48,33.27-8.33,44.99-12.92,28.62-11.22,48.43-23.13,77.49-34.31,13-5,29.05-11.97,60.06-13.89-32.97-2.15-58.67,4.04-74.87,8.46ZM1261.14,384.82c-14.09,3.42-35.09,7.88-61,6.97-14.14-.5-24.62-2.96-32.71-4.97-21.79-5.4-37.11-11.61-52.11-17.72-52.16-21.28-91.27-43.59-143.86-64.83-12.77-5.16-25.99-10.34-43.65-14.99-7.91-2.08-18.05-4.75-32.24-5.42-12.64-.6-24.89,1.03-33.56,2.55-20.54,3.6-33.28,8.53-45.17,13.2-29.14,11.46-49.95,23.59-80.07,34.97-13.73,5.19-30.32,12.21-61.84,14.4,30.59,1.8,55.33-3.63,71.28-7.72,36.16-9.28,57.96-20.21,94.93-29.39,13.73-3.41,34.44-8.07,60.3-7.19,13.92.47,24.18,2.95,32.03,4.92,21.39,5.39,36.37,11.56,51.1,17.64,51.58,21.3,90.78,43.57,144.09,64.72,13.06,5.18,26.64,10.38,44.66,15.04,8.24,2.13,18.64,4.79,33.12,5.51,12.74.63,25.27-.91,34.29-2.42,20.73-3.47,33.63-8.32,45.51-12.92,28.96-11.21,49.07-23.14,78.47-34.31,13.23-5.02,29.53-11.98,60.75-13.89h0c-33.19-2.14-59.17,4.01-75.67,8.46-32.57,8.78-53.67,18.89-88.66,27.38ZM405.2,74.42c11.72,4.67,24.28,9.6,44.64,13.2,8.55,1.51,20.67,3.15,33.21,2.55,14.11-.67,24.14-3.34,31.95-5.42,17.52-4.66,30.63-9.84,43.29-14.99,52.2-21.25,91.03-43.55,142.81-64.83,4-1.64,8.02-3.29,12.18-4.93h-40.46c-33.99,15.58-64.51,31.43-101.41,46.78-14.61,6.08-29.46,12.25-50.69,17.64-7.74,1.97-17.9,4.45-31.73,4.92-25.68.89-46.17-3.8-59.66-7.19-36.59-9.19-58.05-20.11-93.84-29.39-15.67-4.07-40.16-9.52-70.54-7.72,31.31,2.2,47.64,9.23,61.15,14.4,29.78,11.38,50.3,23.5,79.09,34.97ZM390.21,102.03c11.64,4.66,24.11,9.59,44.38,13.2,8.48,1.51,20.54,3.15,33.04,2.55,14.06-.67,24.04-3.35,31.8-5.42,17.46-4.66,30.51-9.84,43.12-14.99,52.01-21.26,90.7-43.54,142.29-64.83,14.81-6.11,29.94-12.31,51.49-17.72,7.94-1.99,18.27-4.47,32.27-4.97,25.64-.91,46.31,3.58,60.04,6.97,34.45,8.5,55.07,18.59,87.1,27.38,16.06,4.41,41.62,10.61,74.47,8.46h0c-30.9-1.93-46.83-8.9-59.72-13.89-28.88-11.18-48.55-23.09-77-34.31-3.75-1.48-7.6-2.98-11.78-4.46h-117.57c-9.51,3.14-17.84,6.41-25.96,9.67-52.73,21.17-91.51,43.42-142.52,64.72-14.55,6.08-29.34,12.25-50.49,17.64-7.7,1.96-17.8,4.44-31.59,4.92-25.59.89-45.96-3.81-59.34-7.19-36.4-9.19-57.69-20.1-93.29-29.39-15.54-4.05-39.89-9.52-70.17-7.72,31.21,2.21,47.41,9.25,60.81,14.4,29.6,11.38,49.98,23.5,78.6,34.97ZM972.36,80.27s0,0,0,0c0,0,0,0,0,0h0ZM1297.42,274.61c-32.03,8.79-52.65,18.88-87.1,27.38-13.74,3.39-34.41,7.89-60.04,6.97-14.01-.5-24.34-2.97-32.28-4.97-21.55-5.41-36.68-11.61-51.49-17.72-51.59-21.29-90.28-43.58-142.29-64.83-12.61-5.16-25.66-10.33-43.12-14.99-7.76-2.07-17.74-4.75-31.8-5.42-12.49-.6-24.55,1.04-33.04,2.55-20.27,3.61-32.74,8.54-44.38,13.2-28.62,11.46-49,23.58-78.6,34.97-13.41,5.15-29.6,12.2-60.81,14.4,30.28,1.8,54.63-3.66,70.17-7.72,35.59-9.29,56.89-20.2,93.29-29.39,13.38-3.38,33.75-8.08,59.34-7.19,13.79.48,23.89,2.96,31.59,4.92,21.15,5.4,35.94,11.57,50.49,17.65,51.01,21.3,89.79,43.56,142.52,64.72,12.91,5.18,26.31,10.38,44.14,15.04,8.09,2.12,18.34,4.79,32.68,5.51,12.58.63,24.94-.92,33.76-2.42,20.47-3.48,33.09-8.33,44.74-12.92,28.44-11.22,48.11-23.13,76.99-34.31,12.89-4.99,28.82-11.96,59.72-13.89-32.86-2.15-58.42,4.06-74.47,8.46ZM1414.11,321.37c30.49,1.8,55.1-3.64,70.91-7.72,11.47-2.96,21.47-6.08,30.98-9.27v-14.98c-12.61,5.92-25.32,11.84-40.39,17.56-13.63,5.18-30.08,12.2-61.5,14.4ZM1428.27,348.98c30.59,1.8,55.33-3.63,71.28-7.72,5.81-1.49,11.25-3.03,16.45-4.59v-12.87c-8.09,3.64-16.54,7.24-25.89,10.77-13.74,5.19-30.32,12.21-61.84,14.4ZM1399.95,293.76c30.39,1.8,54.87-3.65,70.54-7.72,17.44-4.52,31.47-9.43,45.51-14.34v-16.82c-17.77,8.2-34.07,16.53-54.89,24.48-13.52,5.16-29.84,12.2-61.16,14.4ZM1442.85,376.56h0c-33.08-2.05-59.02,4.05-75.59,8.49-32.75,8.78-54.01,18.9-89.18,27.38-14.2,3.43-35.32,7.88-61.32,6.97-14.18-.5-24.72-2.96-32.86-4.97-21.86-5.4-37.25-11.6-52.31-17.72-52.34-21.28-91.6-43.59-144.38-64.83-12.82-5.16-26.1-10.34-43.82-14.99-7.96-2.09-18.15-4.75-32.39-5.42-12.7-.6-25,1.03-33.73,2.55-20.63,3.59-33.46,8.53-45.43,13.2-29.31,11.46-50.27,23.59-80.56,34.97-13.84,5.2-30.55,12.21-62.18,14.4,30.7,1.79,55.57-3.61,71.65-7.72,36.35-9.27,58.32-20.22,95.48-29.39,13.84-3.42,34.67-8.07,60.62-7.19,13.96.47,24.28,2.94,32.17,4.92,21.47,5.39,36.52,11.56,51.3,17.65,51.77,21.29,91.12,43.57,144.62,64.72,13.11,5.19,26.75,10.38,44.84,15.04,8.28,2.13,18.74,4.79,33.26,5.51,12.79.63,25.38-.91,34.46-2.42,20.83-3.46,33.81-8.32,45.78-12.92,29.13-11.21,49.39-23.14,78.96-34.31,13.27-5.01,29.62-11.91,60.65-13.86,30.48,1.71,55.18-3.66,71.19-7.74.65-.17,1.28-.33,1.92-.5v-10.66c-3.67,1.5-7.45,3-11.4,4.48-13.78,5.17-30.4,12.15-61.75,14.37ZM1356.24,470.64c-6.77,2.8-13.6,5.61-21.08,8.36h42.02c36.97-16.71,69.5-33.77,109.81-50.21,9.09-3.71,18.31-7.45,29.01-11.02v-17.85c-5.45,1.98-10.59,3.99-15.66,6.01-53.32,21.16-92.52,43.43-144.1,64.72ZM1383.86,479h35.99c16.12-7.6,32.7-15.16,50.86-22.6,13.36-5.47,27-11.01,45.28-15.99v-18.37c-12.05,3.68-22.13,7.59-31.93,11.5-37.29,14.85-67.65,30.25-100.21,45.47ZM1385.8,266.15c30.28,1.8,54.63-3.66,70.16-7.72,23.41-6.11,40.64-12.92,60.04-19.48v-18.34c-24.02,10.31-43.07,21.01-69.39,31.14-13.41,5.15-29.61,12.2-60.81,14.4ZM1320.68,460.68c-7.89,1.98-18.21,4.45-32.17,4.92-25.95.88-46.78-3.77-60.62-7.19-37.16-9.17-59.13-20.12-95.48-29.39-16-4.08-40.7-9.46-71.18-7.74-31.04-1.95-47.38-8.85-60.65-13.86-29.58-11.17-49.84-23.1-78.96-34.31-11.97-4.61-24.95-9.46-45.78-12.92-9.08-1.51-21.67-3.05-34.46-2.42-14.52.72-24.98,3.38-33.26,5.51-18.09,4.66-31.72,9.86-44.84,15.04-53.5,21.15-92.85,43.43-144.62,64.72-14.79,6.08-29.84,12.26-51.31,17.64-7.9,1.98-18.21,4.45-32.17,4.92-25.95.88-46.78-3.77-60.62-7.19-37.16-9.17-59.13-20.12-95.48-29.39-16.09-4.1-40.96-9.51-71.65-7.72,31.63,2.19,48.34,9.2,62.18,14.4,30.29,11.37,51.26,23.51,80.56,34.97,7.16,2.8,14.65,5.69,23.93,8.33h94.88c14.2-4.11,25.55-8.56,36.56-12.99,52.78-21.24,92.04-43.55,144.39-64.83,15.05-6.12,30.44-12.33,52.31-17.72,8.14-2.01,18.68-4.47,32.86-4.97,26-.91,47.12,3.55,61.32,6.97,35.17,8.48,56.43,18.6,89.17,27.38,16.58,4.44,42.52,10.54,75.6,8.49h0c31.35,2.22,47.97,9.2,61.75,14.37,30.29,11.37,51.25,23.51,80.56,34.97,7.16,2.8,14.65,5.69,23.93,8.33h94.88c14.2-4.11,25.56-8.56,36.56-12.99,52.78-21.24,92.04-43.55,144.39-64.83,4.17-1.7,8.38-3.4,12.74-5.09v-17.53c-53.2,21.08-92.44,43.27-144.01,64.48-14.79,6.08-29.84,12.26-51.31,17.64ZM1417.61,196.53c-13.19,5.13-29.13,12.19-60.12,14.4,30.07,1.81,54.16-3.69,69.42-7.72,34.19-9.02,54.94-19.56,89.09-28.58v-20.71c-7.93,2.46-14.48,5.09-20.77,7.64-28.28,11.47-48.36,23.58-77.62,34.97ZM1479.22,22.24c-17.76,4.67-31.11,9.86-43.97,15.04-52.54,21.17-91.17,43.42-141.99,64.72-14.49,6.07-29.21,12.24-50.29,17.64-7.64,1.96-17.7,4.44-31.44,4.92-25.5.89-45.76-3.82-59.02-7.19-36.21-9.19-57.33-20.1-92.74-29.39-15.4-4.04-39.62-9.52-69.79-7.72,31.1,2.21,47.17,9.26,60.47,14.4,29.43,11.39,49.66,23.5,78.1,34.97,11.57,4.66,23.94,9.59,44.13,13.2,8.42,1.51,20.42,3.15,32.86,2.55,14.01-.67,23.94-3.35,31.66-5.42,17.39-4.66,30.38-9.84,42.94-14.99,51.81-21.26,90.36-43.54,141.76-64.83,14.76-6.11,29.82-12.31,51.29-17.72,7.89-1.99,18.17-4.47,32.13-4.97,3.67-.13,7.22-.14,10.68-.07v-20.79c-1.41.02-2.83.06-4.25.13-14.29.72-24.49,3.4-32.53,5.51ZM122.72,277.07c13.88.48,24.09,2.95,31.88,4.92,21.31,5.39,36.23,11.57,50.9,17.64,51.39,21.3,90.45,43.56,143.57,64.72,13.01,5.18,26.53,10.38,44.49,15.04,8.19,2.12,18.54,4.79,32.97,5.51,12.69.63,25.16-.91,34.11-2.42,20.65-3.47,33.45-8.33,45.26-12.92,28.78-11.21,48.75-23.13,77.98-34.31,13.11-5.01,29.29-11.97,60.4-13.89h0c-33.08-2.14-58.92,4.03-75.27,8.46-32.39,8.78-53.33,18.89-88.14,27.38-13.97,3.41-34.87,7.89-60.68,6.97-14.09-.5-24.53-2.96-32.57-4.97-21.71-5.4-36.97-11.61-51.9-17.72-51.97-21.29-90.94-43.58-143.34-64.83-12.72-5.16-25.88-10.34-43.47-14.99-7.86-2.08-17.95-4.75-32.1-5.42-12.59-.6-24.77,1.04-33.39,2.55-20.45,3.6-33.1,8.53-44.91,13.2-14.14,5.59-26.3,11.35-38.52,17.09v15.07c20.05-6.73,37.96-13.71,62.74-19.9,13.61-3.4,34.21-8.07,59.98-7.19ZM1477.48,0c-9.5,3.14-17.83,6.41-25.96,9.67-52.73,21.17-91.51,43.42-142.52,64.72-14.54,6.08-29.33,12.25-50.49,17.64-7.69,1.96-17.8,4.44-31.58,4.92-25.59.89-45.97-3.81-59.34-7.19-36.4-9.19-57.69-20.1-93.29-29.39-15.53-4.05-39.89-9.52-70.17-7.72,31.21,2.21,47.41,9.25,60.82,14.4,29.6,11.38,49.97,23.5,78.59,34.97,11.65,4.66,24.11,9.59,44.39,13.2,8.48,1.51,20.54,3.15,33.03,2.55,14.06-.67,24.05-3.35,31.81-5.42,17.45-4.66,30.5-9.84,43.12-14.99,52-21.26,90.69-43.54,142.28-64.83,14.82-6.11,29.95-12.31,51.5-17.72,6.77-1.7,15.29-3.74,26.33-4.62V0h-38.52ZM1495.16,44.34c-14.25.72-24.4,3.4-32.39,5.51-17.69,4.67-30.99,9.86-43.79,15.04-52.34,21.17-90.84,43.41-141.47,64.72-14.43,6.07-29.08,12.24-50.08,17.65-7.59,1.96-17.6,4.44-31.3,4.92-25.4.89-45.55-3.83-58.7-7.19-36.01-9.2-56.97-20.1-92.19-29.39-15.26-4.03-39.35-9.52-69.42-7.72,31,2.21,46.94,9.27,60.13,14.4,29.26,11.39,49.34,23.5,77.62,34.97,11.48,4.66,23.76,9.59,43.86,13.2,8.35,1.5,20.29,3.15,32.68,2.55,13.97-.68,23.85-3.36,31.52-5.42,17.32-4.66,30.26-9.84,42.77-14.99,51.61-21.26,90.02-43.54,141.23-64.83,14.7-6.11,29.69-12.31,51.09-17.72,7.84-1.98,18.07-4.46,31.98-4.97,9.9-.36,19.03.11,27.3,1.02v-21.07c-6.43-.67-13.59-1.04-20.84-.67ZM1467.79,461.14c-14.71,5.89-28.34,11.85-41.46,17.86h40.49c11.27-4.43,23.59-8.79,39.32-12.72,2.94-.73,6.21-1.53,9.86-2.27v-18.91c-1.35.34-2.65.68-3.89,1-17.89,4.66-31.36,9.86-44.32,15.04ZM1403.11,168.92c-13.08,5.12-28.89,12.18-59.78,14.4,29.96,1.81,53.93-3.7,69.05-7.72,35.03-9.3,55.82-20.19,91.64-29.39,3.49-.9,7.51-1.89,11.98-2.86v-21.03c-15.5,3.41-25.92,7.62-35.76,11.63-28.1,11.47-48.04,23.58-77.13,34.97ZM1478.57,71.95c-14.2.73-24.3,3.4-32.24,5.51-17.63,4.67-30.87,9.86-43.62,15.04-52.15,21.17-90.5,43.41-140.94,64.72-14.37,6.07-28.96,12.24-49.88,17.64-7.54,1.95-17.5,4.44-31.15,4.92-25.32.89-45.36-3.84-58.38-7.19-35.83-9.2-56.62-20.09-91.64-29.39-15.13-4.02-39.09-9.53-69.05-7.72,30.89,2.22,46.7,9.28,59.78,14.4,29.09,11.39,49.02,23.5,77.13,34.97,11.4,4.65,23.59,9.58,43.6,13.2,8.29,1.5,20.17,3.15,32.51,2.55,13.92-.68,23.75-3.36,31.37-5.42,17.25-4.67,30.13-9.84,42.59-14.99,51.42-21.27,89.69-43.54,140.71-64.83,14.63-6.11,29.57-12.3,50.88-17.72,7.79-1.98,17.97-4.46,31.84-4.97,17.14-.62,31.97,1.25,43.92,3.56v-21.11c-1.36-.26-2.75-.52-4.19-.77-8.63-1.49-20.81-3.05-33.24-2.42ZM1432.11,224.14c-13.3,5.14-29.37,12.19-60.47,14.4,30.18,1.81,54.4-3.68,69.8-7.72,29.06-7.63,48.5-16.34,74.56-24.3v-19.65c-1.97.77-3.89,1.54-5.78,2.3-28.45,11.47-48.68,23.58-78.11,34.97ZM279.11,476.52c7.93.55,14.9,1.41,21.12,2.48h25.28c-13.13-2.14-28.78-3.52-46.4-2.48ZM62.21,443c-8.89-1.5-21.3-3.05-33.94-2.42-11.83.59-20.89,2.5-28.27,4.34v18.95c6.13-1.22,13.33-2.26,21.9-2.56,25.73-.91,46.51,3.57,60.36,6.97,13.77,3.38,25.35,7.01,36.33,10.71h39.75c-16.71-7.72-31.95-15.55-51.14-23.07-11.72-4.59-24.43-9.45-44.99-12.92ZM124.23,428.32c-11.8-4.6-24.61-9.45-45.26-12.92-8.95-1.51-21.43-3.05-34.11-2.42-14.43.72-24.78,3.39-32.97,5.51-4.19,1.09-8.13,2.21-11.89,3.34v18.39c1.94-.52,3.91-1.04,5.96-1.55,8.04-2,18.47-4.47,32.57-4.97,25.82-.91,46.71,3.57,60.68,6.97,34.81,8.49,55.75,18.6,88.14,27.38,16.36,4.44,42.19,10.61,75.27,8.46h0c-31.11-1.93-47.29-8.89-60.4-13.9-29.23-11.18-49.2-23.1-77.98-34.31ZM280.47,448.91c-31.21-1.92-47.52-8.87-60.74-13.89-29.4-11.17-49.52-23.1-78.47-34.31-11.89-4.6-24.78-9.46-45.52-12.92-9.02-1.51-21.55-3.05-34.29-2.42-14.47.72-24.88,3.38-33.12,5.51-10.75,2.78-19.91,5.75-28.33,8.79v17.87c6.77-2.24,14.13-4.42,22.43-6.48,8.09-2.01,18.58-4.47,32.71-4.97,25.91-.91,46.92,3.56,61,6.97,34.99,8.49,56.09,18.6,88.65,27.38,16.5,4.45,42.48,10.6,75.67,8.46h0ZM11.68,468.19c-4.24.21-8.11.6-11.68,1.09v9.72h78.18c-8.76-3.08-18.97-6.05-32.74-8.39-8.83-1.51-21.18-3.05-33.77-2.42ZM138.12,304.68c13.92.47,24.18,2.95,32.02,4.92,21.39,5.39,36.37,11.56,51.1,17.64,51.58,21.3,90.78,43.57,144.09,64.72,13.06,5.18,26.64,10.38,44.66,15.04,8.24,2.13,18.64,4.79,33.12,5.51,12.74.63,25.27-.91,34.29-2.42,20.74-3.47,33.63-8.32,45.52-12.92,28.95-11.21,49.07-23.14,78.47-34.31,13.22-5.02,29.53-11.98,60.74-13.89h0c-33.19-2.14-59.17,4.01-75.67,8.46-32.57,8.78-53.67,18.89-88.66,27.38-14.09,3.42-35.1,7.88-61,6.97-14.14-.5-24.62-2.96-32.71-4.97-21.79-5.4-37.11-11.61-52.11-17.72-52.16-21.28-91.27-43.59-143.86-64.83-12.77-5.16-25.99-10.34-43.65-14.99-7.91-2.08-18.05-4.75-32.24-5.42-12.64-.6-24.88,1.03-33.56,2.55-20.54,3.6-33.28,8.53-45.17,13.2-19.84,7.8-35.82,15.92-53.51,23.89v12.96c26.78-8.1,47.05-16.96,77.82-24.6,13.73-3.41,34.44-8.07,60.3-7.19ZM71.76,378.49c26-.91,47.12,3.55,61.32,6.97,35.17,8.48,56.43,18.6,89.17,27.38,16.65,4.46,42.77,10.6,76.07,8.46h0c-31.32-1.92-47.76-8.86-61.09-13.89-29.58-11.17-49.83-23.1-78.96-34.31-11.97-4.61-24.95-9.46-45.78-12.92-9.08-1.51-21.67-3.05-34.46-2.42-14.52.72-24.98,3.38-33.26,5.51-18.06,4.65-31.68,9.84-44.78,15.02v17.54c11.18-4.32,23.41-8.55,38.91-12.37,8.14-2.01,18.68-4.47,32.86-4.97ZM1477.72,479h38.28v-9.63c-8.21,1.17-14.79,2.88-20.34,4.33-6.51,1.7-12.42,3.48-17.94,5.3ZM153.51,332.29c13.96.47,24.28,2.94,32.17,4.92,21.47,5.39,36.52,11.56,51.31,17.64,51.77,21.29,91.11,43.57,144.62,64.72,13.11,5.19,26.75,10.38,44.84,15.04,8.29,2.13,18.74,4.79,33.26,5.51,12.79.63,25.38-.91,34.46-2.42,20.82-3.46,33.81-8.32,45.78-12.92,29.12-11.21,49.38-23.14,78.96-34.31,13.33-5.03,29.77-11.98,61.09-13.89-33.3-2.14-59.42,4-76.07,8.46-32.74,8.78-54.01,18.9-89.17,27.38-14.21,3.42-35.33,7.88-61.32,6.97-14.18-.5-24.72-2.96-32.86-4.96-21.87-5.4-37.26-11.61-52.31-17.73-52.35-21.28-91.61-43.59-144.39-64.83-12.82-5.16-26.1-10.34-43.82-14.99-7.96-2.09-18.15-4.75-32.39-5.42-12.7-.6-25,1.03-33.73,2.55-20.63,3.59-33.47,8.53-45.43,13.2-25.26,9.87-44.33,20.25-68.5,30.21v10.77c34.82-9.13,56.62-19.77,92.89-28.72,13.84-3.42,34.67-8.07,60.62-7.19ZM293.27,448.91c31.52,2.19,48.11,9.21,61.84,14.4,13.56,5.12,25.23,10.39,36.62,15.69h42.85c-23.62-7.42-42.74-15.37-70.03-22.37-15.95-4.09-40.69-9.51-71.28-7.72ZM1046.6,448.91c31.53,2.19,48.11,9.21,61.84,14.4,13.56,5.12,25.23,10.39,36.62,15.69h42.85c-23.62-7.42-42.74-15.37-70.03-22.37-15.94-4.09-40.68-9.51-71.28-7.72ZM983.06,435.02c-29.4-11.17-49.52-23.1-78.47-34.31-11.89-4.6-24.78-9.46-45.52-12.92-9.02-1.51-21.55-3.05-34.29-2.42-14.47.72-24.88,3.38-33.12,5.51-18.02,4.66-31.6,9.86-44.66,15.04-53.31,21.16-92.51,43.43-144.09,64.72-6.77,2.8-13.6,5.61-21.08,8.36h42.02c36.97-16.71,69.49-33.77,109.81-50.21,14.99-6.12,30.32-12.32,52.11-17.72,8.09-2.01,18.58-4.47,32.71-4.97,25.91-.91,46.91,3.56,61,6.97,34.99,8.49,56.09,18.6,88.66,27.38,16.51,4.45,42.48,10.6,75.68,8.46-31.22-1.92-47.53-8.87-60.75-13.89ZM1032.45,476.52c7.93.55,14.9,1.41,21.11,2.48h25.28c-13.13-2.14-28.78-3.52-46.4-2.48ZM887.57,428.32c-11.81-4.6-24.61-9.45-45.26-12.92-8.95-1.51-21.43-3.05-34.11-2.42-14.43.72-24.78,3.39-32.97,5.51-17.96,4.66-31.48,9.86-44.49,15.04-37.29,14.85-67.65,30.25-100.2,45.47h36c16.12-7.6,32.69-15.16,50.86-22.6,14.93-6.12,30.19-12.32,51.9-17.72,8.04-2,18.47-4.47,32.57-4.97,25.82-.91,46.71,3.57,60.68,6.97,34.81,8.49,55.75,18.6,88.14,27.38,16.36,4.44,42.19,10.61,75.28,8.46h0c-31.11-1.93-47.3-8.89-60.41-13.9-29.23-11.18-49.2-23.1-77.98-34.31ZM775.01,468.19c-14.34.73-24.59,3.4-32.68,5.51-6.51,1.7-12.43,3.48-17.95,5.3h117.13c-8.76-3.08-18.97-6.05-32.74-8.39-8.83-1.51-21.18-3.05-33.77-2.42ZM825.54,443c-8.89-1.5-21.3-3.05-33.94-2.42-14.38.72-24.69,3.39-32.83,5.51-17.89,4.66-31.35,9.86-44.31,15.04-14.72,5.89-28.35,11.85-41.46,17.86h40.49c11.27-4.43,23.59-8.79,39.32-12.72,7.99-2,18.37-4.47,32.42-4.96,25.73-.91,46.51,3.57,60.36,6.97,13.77,3.38,25.35,7.01,36.33,10.71h39.75c-16.71-7.72-31.95-15.55-51.14-23.07-11.72-4.59-24.43-9.45-44.99-12.92Z"/>
  <path class="cls-1" d="M43.06,80.17c14.1-.67,24.14-3.34,31.95-5.42,17.52-4.66,30.63-9.83,43.29-14.99C166.37,40.19,203.11,19.74,249.06,0h-37.6c-25.93,12.32-51.01,24.71-80.04,36.78-14.61,6.08-29.46,12.25-50.69,17.65-7.74,1.97-17.9,4.45-31.73,4.92-19.64.68-36.23-1.9-48.99-4.67v20.97c3.08.69,6.34,1.35,9.85,1.97,8.55,1.51,20.67,3.15,33.21,2.55ZM624.95,57.06c29.6,11.38,49.98,23.5,78.6,34.97,11.65,4.66,24.11,9.59,44.39,13.2,8.48,1.51,20.54,3.15,33.03,2.55,14.06-.67,24.05-3.35,31.81-5.42,17.45-4.66,30.5-9.84,43.12-14.99,52-21.26,90.69-43.54,142.28-64.83,14.82-6.11,29.95-12.31,51.5-17.72,7.34-1.84,16.72-4.09,29.14-4.82h-68.11c-52.31,21.07-90.95,43.2-141.7,64.39-14.54,6.08-29.33,12.25-50.49,17.64-7.69,1.96-17.8,4.44-31.58,4.92-25.59.89-45.97-3.81-59.34-7.19-36.4-9.19-57.7-20.1-93.29-29.39-15.54-4.05-39.89-9.52-70.17-7.72,31.21,2.2,47.41,9.24,60.81,14.4ZM73.91,24.96c14.2-.67,24.34-3.34,32.24-5.42,17.66-4.65,30.87-9.83,43.65-14.99,3.74-1.51,7.4-3.02,11.01-4.54h-52.17c-7.39,1.8-16.73,3.72-28.85,4.13-18.5.63-34.35-1.58-46.91-4.13H0v11.08c10.6,4.09,22.54,8.21,40.35,11.32,8.67,1.52,20.91,3.15,33.56,2.55ZM58.48,52.57c14.15-.67,24.24-3.34,32.1-5.42,17.59-4.65,30.75-9.83,43.47-14.99,26-10.54,48.69-21.35,71.31-32.15h-36.86c-6.91,3.07-13.99,6.13-21.32,9.17-14.67,6.08-29.59,12.25-50.9,17.64-7.79,1.97-18,4.45-31.88,4.92-25.77.88-46.37-3.79-59.98-7.19-1.5-.37-2.96-.75-4.41-1.13v20.57c7.06,2.2,15.15,4.26,25.1,6.02,8.61,1.52,20.79,3.15,33.38,2.55ZM475.75,34.2c16.06,4.41,41.6,10.61,74.45,8.46-30.88-1.93-46.8-8.9-59.69-13.89-24.17-9.36-41.91-19.23-63.72-28.77h-81.47c17.97.94,32.73,4.2,43.34,6.82,34.45,8.5,55.07,18.59,87.1,27.38ZM568.08,15.05s0,0,0,0c0,0,0,0,0,0h0ZM550.22,42.66s-.02,0-.03,0c0,0,.02,0,.03,0h0ZM718.53,64.42c11.72,4.67,24.28,9.6,44.65,13.2,8.54,1.51,20.66,3.15,33.21,2.55,14.1-.67,24.14-3.34,31.95-5.42,17.52-4.66,30.63-9.84,43.29-14.99,48.07-19.57,84.81-40.03,130.77-59.76h-37.61c-25.93,12.32-51.01,24.71-80.04,36.78-14.61,6.08-29.46,12.25-50.69,17.64-7.75,1.97-17.91,4.45-31.74,4.92-25.67.89-46.17-3.8-59.66-7.19-36.59-9.19-58.05-20.11-93.83-29.39-15.67-4.07-40.16-9.52-70.54-7.72,31.31,2.2,47.64,9.23,61.15,14.4,29.78,11.38,50.3,23.5,79.09,34.97ZM568.08,15.05c-31-1.92-47.05-8.89-60.05-13.89-1-.39-1.97-.77-2.95-1.16h-33.66c6.84,2.25,13.98,4.46,21.8,6.59,16.21,4.42,41.9,10.61,74.86,8.46ZM91.33,242.43c12.78-4.98,28.58-11.96,59.37-13.89-32.74-2.15-58.16,4.07-74.07,8.46-28.64,7.9-48.08,16.86-76.62,24.76v20.51c5.39-1.82,10.18-3.7,14.82-5.54,28.27-11.22,47.8-23.13,76.51-34.31ZM114.97,173.32h0c-32.52-2.16-57.66,4.1-73.27,8.46-15.68,4.38-28.55,9.08-41.7,13.74v17.64c18.67-8.66,34.88-17.51,56.29-25.95,12.56-4.96,28.1-11.95,58.68-13.89ZM132.84,200.93h0c-32.63-2.16-57.91,4.09-73.67,8.46-22.45,6.23-39.18,13.11-59.16,19.62v19.22c26.91-10.96,46.03-22.52,73.81-33.41,12.67-4.97,28.34-11.96,59.03-13.89ZM108.84,270.04c12.89-4.99,28.82-11.96,59.71-13.89h0c-32.86-2.15-58.41,4.06-74.47,8.46-32.03,8.79-52.64,18.88-87.1,27.38-2.16.53-4.5,1.09-6.99,1.65v21.05c13.29-3.1,22.87-6.8,31.85-10.34,28.44-11.22,48.11-23.13,77-34.31ZM71.07,142.59c51.62-21.26,90.02-43.54,141.24-64.83,14.69-6.11,29.69-12.31,51.09-17.72,7.84-1.98,18.07-4.46,31.98-4.97,25.46-.92,45.9,3.6,59.4,6.97,34.09,8.51,54.38,18.59,86.06,27.38,15.76,4.38,41.03,10.62,73.66,8.46-30.68-1.94-46.35-8.93-59.02-13.89-28.54-11.18-47.91-23.09-76.02-34.31-11.48-4.58-23.92-9.44-44.21-12.92-8.7-1.49-20.93-3.05-33.42-2.42-14.25.72-24.4,3.4-32.39,5.51-17.69,4.67-30.99,9.86-43.79,15.04-52.35,21.17-90.84,43.41-141.47,64.72-14.43,6.07-29.09,12.24-50.08,17.65-7.6,1.95-17.6,4.44-31.3,4.92-.95.03-1.87.04-2.8.06v20.56c12.29-.9,21.24-3.32,28.3-5.22,17.32-4.66,30.26-9.84,42.77-14.99ZM12.21,135.39c14.02-.68,23.95-3.35,31.66-5.42,17.39-4.66,30.38-9.84,42.95-14.99,51.81-21.26,90.36-43.54,141.76-64.83,14.75-6.11,29.82-12.31,51.29-17.72,7.89-1.99,18.17-4.47,32.13-4.97,25.55-.92,46.1,3.59,59.72,6.97,34.27,8.5,54.73,18.59,86.58,27.38,15.91,4.39,41.33,10.61,74.07,8.46-30.79-1.93-46.59-8.91-59.37-13.89-28.71-11.18-48.23-23.09-76.51-34.31-11.56-4.59-24.09-9.44-44.47-12.92-8.76-1.5-21.06-3.05-33.59-2.42-14.29.72-24.49,3.4-32.53,5.51-17.76,4.67-31.11,9.86-43.96,15.04-52.54,21.17-91.17,43.42-141.99,64.73-14.49,6.07-29.21,12.24-50.29,17.64-7.64,1.96-17.7,4.44-31.44,4.92-6.41.22-12.48.09-18.2-.28v21.04c3.94.21,8.05.27,12.21.07ZM55.32,170.2c51.42-21.27,89.69-43.54,140.71-64.83,14.63-6.11,29.57-12.3,50.88-17.72,7.79-1.98,17.97-4.46,31.84-4.97,25.37-.92,45.7,3.61,59.08,6.97,33.91,8.51,54.04,18.58,85.54,27.38,15.61,4.36,40.75,10.62,73.27,8.46h0c-30.58-1.94-46.12-8.94-58.68-13.89-28.36-11.19-47.6-23.09-75.53-34.31-11.4-4.58-23.74-9.43-43.95-12.92-8.63-1.49-20.81-3.05-33.24-2.42-14.2.73-24.3,3.4-32.24,5.51-17.63,4.67-30.86,9.86-43.61,15.04-52.15,21.17-90.5,43.41-140.94,64.72-14.37,6.07-28.96,12.24-49.88,17.65-5,1.29-11.07,2.82-18.56,3.84v19.59c4.89-.99,9.07-2.12,12.72-3.11,17.26-4.66,30.14-9.84,42.6-14.99ZM27.63,107.78c14.06-.67,24.04-3.35,31.8-5.42,17.46-4.66,30.51-9.84,43.12-14.99,52.01-21.26,90.7-43.54,142.29-64.83,14.81-6.11,29.94-12.31,51.49-17.72,7.33-1.84,16.72-4.09,29.15-4.82h-68.1c-52.32,21.07-90.96,43.2-141.7,64.39-14.55,6.08-29.34,12.25-50.49,17.64-7.7,1.96-17.8,4.44-31.59,4.92-12.52.43-23.78-.47-33.6-1.9v21.06c7.85,1.18,17.6,2.15,27.63,1.67ZM1000.24,87.64c7.79-1.98,17.97-4.46,31.84-4.97,25.37-.92,45.7,3.61,59.08,6.97,33.91,8.51,54.05,18.58,85.54,27.38,15.62,4.36,40.75,10.62,73.27,8.46-30.58-1.94-46.12-8.94-58.68-13.89-28.36-11.19-47.6-23.09-75.53-34.31-11.4-4.58-23.74-9.43-43.95-12.92-8.63-1.49-20.81-3.05-33.24-2.42-14.2.73-24.3,3.4-32.24,5.51-17.63,4.67-30.87,9.86-43.62,15.04-52.15,21.17-90.5,43.41-140.94,64.72-14.37,6.07-28.96,12.24-49.88,17.65-7.54,1.95-17.5,4.44-31.15,4.92-25.32.89-45.36-3.84-58.38-7.19-35.83-9.2-56.62-20.09-91.65-29.39-15.12-4.02-39.09-9.53-69.05-7.72,30.89,2.22,46.7,9.28,59.78,14.4,29.09,11.39,49.02,23.5,77.13,34.97,11.4,4.65,23.59,9.58,43.6,13.2,8.29,1.5,20.17,3.15,32.51,2.55,13.92-.68,23.75-3.36,31.37-5.42,17.25-4.66,30.13-9.84,42.59-14.99,51.42-21.27,89.69-43.54,140.71-64.83,14.63-6.11,29.57-12.3,50.88-17.72ZM760.14,381.79c-14.14-.5-24.62-2.96-32.71-4.97-21.79-5.4-37.11-11.61-52.11-17.72-52.16-21.28-91.27-43.59-143.86-64.83-12.77-5.16-25.99-10.34-43.65-14.99-7.91-2.08-18.05-4.75-32.24-5.42-12.64-.6-24.89,1.03-33.56,2.55-20.54,3.6-33.28,8.53-45.17,13.2-29.14,11.46-49.95,23.59-80.07,34.97-13.73,5.19-30.32,12.21-61.84,14.4,30.59,1.8,55.33-3.63,71.28-7.72,36.16-9.28,57.96-20.21,94.93-29.39,13.73-3.41,34.44-8.07,60.3-7.19,13.92.47,24.18,2.95,32.03,4.92,21.39,5.39,36.37,11.56,51.1,17.64,51.58,21.3,90.78,43.57,144.09,64.72,13.06,5.18,26.64,10.38,44.66,15.04,8.24,2.13,18.64,4.79,33.12,5.51,12.74.63,25.27-.91,34.29-2.42,20.73-3.47,33.63-8.32,45.51-12.92,28.96-11.21,49.07-23.14,78.47-34.31,13.23-5.02,29.53-11.98,60.75-13.89h0c-33.19-2.14-59.17,4.01-75.67,8.46-32.57,8.78-53.67,18.89-88.66,27.38-14.09,3.42-35.09,7.88-61,6.97ZM892.34,319.83c-32.39,8.78-53.33,18.89-88.14,27.38-13.97,3.41-34.87,7.89-60.68,6.97-14.09-.5-24.53-2.96-32.57-4.97-21.71-5.4-36.97-11.61-51.9-17.72-51.97-21.29-90.94-43.58-143.34-64.83-12.72-5.16-25.88-10.34-43.47-14.99-7.86-2.08-17.95-4.75-32.1-5.42-12.59-.6-24.77,1.04-33.39,2.55-20.45,3.6-33.1,8.53-44.91,13.2-28.96,11.46-49.63,23.59-79.58,34.97-13.62,5.18-30.08,12.2-61.5,14.4,30.49,1.8,55.1-3.64,70.91-7.72,35.97-9.28,57.6-20.21,94.38-29.39,13.61-3.4,34.21-8.07,59.98-7.19,13.88.48,24.09,2.95,31.88,4.92,21.31,5.39,36.23,11.57,50.9,17.64,51.39,21.3,90.45,43.56,143.57,64.72,13.01,5.18,26.53,10.38,44.49,15.04,8.18,2.12,18.54,4.79,32.97,5.51,12.69.63,25.16-.91,34.11-2.42,20.65-3.47,33.45-8.33,45.26-12.92,28.78-11.21,48.75-23.13,77.98-34.31,13.11-5.01,29.29-11.97,60.4-13.89-33.08-2.14-58.92,4.03-75.27,8.46ZM874.88,292.22c-32.21,8.78-52.99,18.88-87.62,27.38-13.85,3.4-34.64,7.89-60.36,6.97-14.05-.5-24.43-2.97-32.42-4.97-21.64-5.41-36.83-11.61-51.7-17.72-51.78-21.29-90.61-43.58-142.81-64.83-12.67-5.16-25.77-10.33-43.29-14.99-7.81-2.08-17.85-4.75-31.95-5.42-12.54-.6-24.66,1.04-33.21,2.55-20.36,3.6-32.92,8.54-44.64,13.2-28.79,11.46-49.31,23.58-79.09,34.97-13.51,5.16-29.84,12.2-61.15,14.4,30.38,1.8,54.86-3.65,70.54-7.72,35.78-9.29,57.25-20.21,93.84-29.39,13.49-3.39,33.98-8.07,59.66-7.19,13.83.48,23.99,2.96,31.74,4.92,21.23,5.4,36.08,11.57,50.69,17.65,51.2,21.3,90.12,43.56,143.04,64.72,12.96,5.18,26.42,10.38,44.31,15.04,8.14,2.12,18.44,4.79,32.83,5.51,12.63.63,25.05-.91,33.94-2.42,20.56-3.48,33.27-8.33,44.99-12.92,28.62-11.22,48.43-23.13,77.49-34.31,13-5,29.05-11.97,60.06-13.89h0c-32.97-2.15-58.67,4.04-74.87,8.46ZM839.95,237c-31.85,8.79-52.3,18.88-86.57,27.38-13.62,3.38-34.18,7.89-59.73,6.97-13.95-.5-24.24-2.98-32.12-4.97-21.47-5.41-36.54-11.61-51.29-17.72-51.4-21.29-89.95-43.57-141.76-64.83-12.56-5.15-25.55-10.33-42.95-14.99-7.71-2.07-17.64-4.74-31.66-5.42-12.44-.6-24.44,1.05-32.86,2.55-20.18,3.61-32.56,8.54-44.12,13.2-28.45,11.47-48.68,23.58-78.11,34.97-13.3,5.14-29.37,12.19-60.47,14.4,30.17,1.81,54.4-3.68,69.8-7.72,35.4-9.29,56.53-20.2,92.74-29.39,13.26-3.37,33.53-8.08,59.02-7.19,13.74.48,23.8,2.96,31.44,4.92,21.08,5.4,35.8,11.57,50.29,17.65,50.82,21.31,89.45,43.55,141.99,64.72,12.85,5.18,26.2,10.37,43.96,15.04,8.04,2.11,18.24,4.79,32.54,5.51,12.53.63,24.82-.92,33.59-2.42,20.38-3.48,32.9-8.34,44.47-12.92,28.27-11.22,47.8-23.13,76.51-34.31,12.78-4.98,28.57-11.96,59.37-13.89-32.75-2.15-58.16,4.07-74.08,8.46ZM857.42,264.61c-32.03,8.79-52.65,18.88-87.1,27.38-13.74,3.39-34.41,7.89-60.04,6.97-14.01-.5-24.34-2.97-32.28-4.97-21.55-5.41-36.68-11.61-51.49-17.72-51.59-21.29-90.28-43.58-142.29-64.83-12.61-5.15-25.66-10.33-43.12-14.99-7.76-2.07-17.74-4.75-31.8-5.42-12.49-.6-24.55,1.04-33.04,2.55-20.27,3.61-32.74,8.54-44.38,13.2-28.62,11.46-49,23.58-78.6,34.97-13.41,5.15-29.61,12.19-60.81,14.4,30.28,1.8,54.63-3.66,70.17-7.72,35.59-9.29,56.89-20.2,93.29-29.39,13.38-3.38,33.75-8.08,59.34-7.19,13.79.48,23.89,2.96,31.59,4.92,21.15,5.4,35.94,11.57,50.49,17.65,51.01,21.3,89.78,43.56,142.52,64.72,12.91,5.18,26.31,10.38,44.14,15.04,8.09,2.12,18.34,4.79,32.68,5.51,12.58.63,24.94-.92,33.76-2.42,20.47-3.48,33.09-8.33,44.74-12.92,28.44-11.22,48.11-23.13,76.99-34.31,12.89-4.99,28.82-11.96,59.72-13.89-32.86-2.15-58.42,4.06-74.47,8.46ZM1229.08,34.2c16.06,4.41,41.62,10.61,74.46,8.46-30.89-1.93-46.81-8.9-59.7-13.89-24.17-9.36-41.91-19.22-63.72-28.77h-81.47c17.97.94,32.73,4.2,43.34,6.82,34.45,8.5,55.06,18.59,87.09,27.38ZM1321.42,15.05h0c-31.01-1.92-47.06-8.89-60.06-13.89-1-.39-1.97-.77-2.95-1.16h-33.67c6.83,2.25,13.98,4.46,21.8,6.59,16.21,4.42,41.91,10.61,74.88,8.46ZM1303.55,42.66s0,0,0,0c0,0,0,0,0,0h0ZM369.07,129.03c13.65.48,23.61,2.97,31.15,4.92,20.92,5.41,35.51,11.57,49.88,17.64,50.44,21.31,88.79,43.55,140.94,64.72,12.75,5.18,25.99,10.37,43.61,15.04,7.94,2.1,18.04,4.78,32.24,5.51,12.44.64,24.61-.92,33.25-2.42,20.2-3.49,32.54-8.34,43.95-12.92,27.92-11.22,47.16-23.12,75.52-34.31,12.56-4.96,28.1-11.95,58.69-13.89h0c-32.53-2.16-57.66,4.1-73.28,8.46-31.49,8.8-51.62,18.87-85.53,27.38-13.39,3.36-33.72,7.89-59.09,6.97-13.87-.5-24.05-2.99-31.84-4.97-21.32-5.42-36.25-11.62-50.88-17.72-51.02-21.3-89.29-43.57-140.71-64.83-12.46-5.15-25.34-10.33-42.59-14.99-7.61-2.06-17.44-4.74-31.37-5.42-12.34-.6-24.22,1.05-32.51,2.55-20.01,3.62-32.2,8.55-43.6,13.2-28.1,11.47-48.04,23.58-77.13,34.97-13.08,5.12-28.9,12.18-59.78,14.4,29.97,1.81,53.93-3.7,69.05-7.72,35.03-9.3,55.82-20.19,91.64-29.39,13.03-3.35,33.07-8.08,58.38-7.19ZM1285.69,70.27h0s0,0,0,0h0ZM1285.69,70.27c-30.79-1.93-46.59-8.91-59.37-13.89-28.71-11.18-48.23-23.09-76.5-34.31-11.57-4.59-24.09-9.44-44.48-12.92-8.76-1.5-21.05-3.05-33.59-2.42-14.29.72-24.49,3.4-32.53,5.51-17.76,4.67-31.11,9.86-43.97,15.04-52.54,21.17-91.17,43.42-141.99,64.73-14.49,6.07-29.21,12.24-50.29,17.64-7.64,1.96-17.7,4.44-31.44,4.92-25.5.89-45.76-3.82-59.02-7.19-36.21-9.19-57.33-20.1-92.74-29.39-15.4-4.04-39.62-9.52-69.79-7.72,31.1,2.21,47.17,9.26,60.47,14.4,29.43,11.39,49.66,23.5,78.11,34.97,11.57,4.66,23.94,9.59,44.13,13.2,8.42,1.51,20.42,3.15,32.86,2.55,14.01-.68,23.94-3.35,31.66-5.42,17.39-4.66,30.38-9.84,42.94-14.99,51.81-21.26,90.36-43.54,141.76-64.83,14.76-6.11,29.82-12.31,51.29-17.72,7.89-1.99,18.17-4.47,32.13-4.97,25.55-.92,46.11,3.59,59.72,6.97,34.28,8.5,54.73,18.59,86.58,27.38,15.91,4.39,41.33,10.61,74.07,8.46ZM233.58,193.21c35.22-9.29,56.17-20.19,92.19-29.39,13.14-3.36,33.3-8.08,58.7-7.19,13.7.48,23.7,2.97,31.3,4.92,20.99,5.4,35.65,11.57,50.08,17.64,50.63,21.31,89.12,43.55,141.47,64.73,12.8,5.18,26.1,10.37,43.79,15.04,7.99,2.11,18.14,4.79,32.39,5.51,12.49.64,24.72-.92,33.42-2.42,20.3-3.49,32.73-8.34,44.21-12.92,28.1-11.22,47.48-23.12,76.02-34.31,12.67-4.97,28.34-11.96,59.03-13.89h0c-32.64-2.16-57.91,4.09-73.68,8.46-31.67,8.79-51.96,18.87-86.05,27.38-13.5,3.37-33.95,7.89-59.41,6.97-13.91-.5-24.14-2.98-31.98-4.97-21.4-5.42-36.39-11.61-51.09-17.72-51.21-21.29-89.62-43.57-141.24-64.83-12.51-5.15-25.45-10.33-42.77-14.99-7.66-2.06-17.54-4.74-31.51-5.42-12.39-.6-24.33,1.05-32.69,2.55-20.09,3.62-32.38,8.55-43.86,13.2-28.28,11.47-48.36,23.58-77.62,34.97-13.19,5.13-29.13,12.19-60.13,14.4,30.07,1.81,54.16-3.69,69.42-7.72ZM1267.82,97.88c-30.68-1.94-46.34-8.93-59.01-13.89-28.54-11.18-47.92-23.09-76.02-34.31-11.48-4.58-23.92-9.44-44.21-12.92-8.7-1.49-20.93-3.05-33.42-2.42-14.25.72-24.4,3.4-32.39,5.51-17.69,4.67-30.99,9.86-43.79,15.04-52.34,21.17-90.84,43.41-141.47,64.72-14.43,6.07-29.08,12.24-50.08,17.65-7.59,1.95-17.6,4.44-31.3,4.92-25.4.89-45.55-3.83-58.7-7.19-36.01-9.2-56.97-20.1-92.19-29.39-15.26-4.03-39.35-9.53-69.42-7.72,30.99,2.21,46.94,9.27,60.13,14.4,29.26,11.39,49.34,23.5,77.62,34.97,11.48,4.66,23.76,9.59,43.86,13.2,8.35,1.5,20.29,3.15,32.68,2.55,13.97-.68,23.85-3.36,31.52-5.42,17.32-4.66,30.26-9.84,42.77-14.99,51.61-21.26,90.02-43.54,141.23-64.83,14.7-6.11,29.69-12.31,51.09-17.72,7.84-1.98,18.07-4.46,31.98-4.97,25.46-.92,45.9,3.6,59.4,6.97,34.1,8.51,54.39,18.59,86.06,27.38,15.76,4.38,41.04,10.62,73.66,8.46ZM793.68,22.4c8.67,1.52,20.91,3.15,33.56,2.55,14.19-.67,24.33-3.34,32.24-5.42,17.66-4.65,30.87-9.83,43.64-14.99,3.74-1.51,7.4-3.02,11.01-4.54h-52.17c-7.39,1.79-16.73,3.72-28.84,4.13-18.5.63-34.34-1.58-46.9-4.13h-59.38c6.86,3.1,13.98,6.17,21.68,9.2,11.88,4.67,24.62,9.61,45.17,13.2ZM733.52,36.81c11.8,4.67,24.45,9.6,44.91,13.2,8.61,1.52,20.79,3.15,33.38,2.55,14.15-.67,24.24-3.34,32.1-5.42,17.59-4.65,30.75-9.83,43.47-14.99,25.99-10.54,48.69-21.35,71.3-32.15h-36.86c-6.91,3.07-13.99,6.13-21.32,9.17-14.67,6.08-29.59,12.25-50.9,17.64-7.8,1.97-18.01,4.45-31.88,4.92-25.77.88-46.37-3.79-59.98-7.19-30.55-7.63-50.66-16.46-77.22-24.55h-31.4c1.65.63,3.26,1.25,4.82,1.84,29.95,11.38,50.62,23.51,79.58,34.97ZM48.87,331.96c28.61-11.22,48.43-23.13,77.49-34.31,13-5,29.05-11.97,60.06-13.89h0c-32.97-2.15-58.67,4.04-74.87,8.46-32.21,8.78-52.99,18.88-87.62,27.38-6.51,1.6-14.57,3.43-23.93,4.83v21.07c1.35-.2,2.65-.41,3.88-.62,20.56-3.48,33.27-8.33,44.99-12.92ZM1267.83,97.88s0,0,0,0c0,0,0,0,0,0h0ZM514.5,97.88s0,0,0,0c0,0,0,0,0,0h0ZM65.9,359.57c28.79-11.21,48.75-23.13,77.98-34.31,13.11-5.01,29.29-11.97,60.4-13.89-33.08-2.14-58.92,4.03-75.27,8.46-32.39,8.78-53.33,18.89-88.14,27.38-10.19,2.49-24.09,5.53-40.87,6.65v20.99c7.74-.41,14.91-1.39,20.64-2.35,20.65-3.47,33.45-8.33,45.26-12.92ZM1480.23,326.57c-14.05-.5-24.43-2.97-32.42-4.97-21.63-5.41-36.82-11.61-51.7-17.72-51.78-21.29-90.61-43.58-142.81-64.83-12.67-5.16-25.77-10.33-43.3-14.99-7.8-2.08-17.84-4.75-31.95-5.42-12.54-.6-24.66,1.04-33.21,2.55-20.36,3.6-32.92,8.54-44.64,13.2-28.79,11.46-49.32,23.58-79.09,34.97-13.52,5.16-29.84,12.2-61.16,14.4,30.39,1.8,54.87-3.65,70.54-7.72,35.79-9.29,57.25-20.21,93.84-29.39,13.49-3.39,33.98-8.07,59.66-7.19,13.83.48,23.99,2.96,31.73,4.92,21.24,5.4,36.09,11.57,50.7,17.65,51.2,21.3,90.11,43.56,143.04,64.72,12.96,5.18,26.42,10.38,44.31,15.04,8.14,2.12,18.45,4.79,32.83,5.51,10.61.53,21.06-.47,29.4-1.7v-21.07c-10.41,1.53-22.42,2.51-35.77,2.04ZM1496.85,354.18c-14.09-.5-24.52-2.96-32.56-4.97-21.71-5.4-36.97-11.61-51.91-17.72-51.97-21.29-90.94-43.58-143.34-64.83-12.71-5.16-25.88-10.34-43.47-14.99-7.85-2.08-17.94-4.75-32.09-5.42-12.59-.6-24.78,1.04-33.39,2.55-20.45,3.6-33.1,8.53-44.9,13.2-28.97,11.46-49.63,23.59-79.58,34.97-13.63,5.18-30.08,12.2-61.5,14.4,30.49,1.8,55.1-3.64,70.91-7.72,35.97-9.28,57.6-20.21,94.38-29.39,13.61-3.4,34.22-8.07,59.98-7.19,13.88.48,24.09,2.95,31.88,4.92,21.32,5.39,36.23,11.57,50.9,17.64,51.39,21.3,90.45,43.56,143.57,64.72,13.01,5.18,26.53,10.38,44.49,15.04,8.19,2.12,18.54,4.79,32.97,5.51,4.34.22,8.65.17,12.81-.03v-20.98c-6.03.38-12.42.52-19.15.28ZM1446.99,271.36c-13.96-.5-24.24-2.98-32.13-4.97-21.47-5.41-36.54-11.61-51.29-17.72-51.4-21.29-89.95-43.57-141.76-64.83-12.57-5.16-25.56-10.33-42.95-14.99-7.71-2.07-17.64-4.74-31.66-5.42-12.44-.6-24.44,1.05-32.86,2.55-20.18,3.61-32.56,8.54-44.12,13.2-28.45,11.47-48.68,23.58-78.11,34.97-13.3,5.14-29.37,12.19-60.47,14.4,30.18,1.81,54.4-3.68,69.8-7.72,35.4-9.29,56.53-20.2,92.74-29.39,13.26-3.37,33.52-8.08,59.02-7.19,13.74.48,23.79,2.96,31.44,4.92,21.07,5.4,35.8,11.57,50.29,17.65,50.82,21.31,89.45,43.55,141.99,64.72,12.85,5.18,26.2,10.37,43.96,15.04,8.05,2.11,18.24,4.79,32.54,5.51,12.53.63,24.83-.92,33.59-2.42,11.88-2.03,21.08-4.53,28.99-7.16v-20.55c-2.99.82-6.08,1.63-9.29,2.43-13.62,3.38-34.18,7.89-59.72,6.97ZM1369.93,438.91c31.53,2.19,48.11,9.21,61.84,14.4,22.09,8.35,39.19,17.09,58.23,25.69h26v-8.53c-25.88-7.83-45.69-16.37-74.79-23.84-15.94-4.09-40.69-9.51-71.28-7.72ZM1384.09,411.3c31.63,2.19,48.34,9.2,62.18,14.4,26.43,9.92,45.76,20.43,69.73,30.56v-18.16c-19.39-6.44-36.84-13.11-60.26-19.08-16.08-4.1-40.95-9.51-71.65-7.72ZM1444.93,386.71c-52.35-21.28-91.61-43.59-144.4-64.83-12.82-5.16-26.09-10.34-43.82-14.99-7.95-2.09-18.14-4.75-32.38-5.42-12.7-.6-25,1.03-33.74,2.55-20.63,3.59-33.46,8.53-45.43,13.2-29.3,11.46-50.26,23.59-80.56,34.97-13.78,5.17-30.4,12.15-61.75,14.37h0c-33.08-2.05-59.02,4.05-75.59,8.49-32.75,8.78-54.01,18.9-89.18,27.38-14.2,3.43-35.32,7.88-61.32,6.97-14.18-.5-24.72-2.96-32.86-4.97-21.86-5.4-37.25-11.6-52.31-17.72-52.35-21.28-91.6-43.59-144.39-64.83-12.82-5.16-26.1-10.34-43.82-14.99-7.96-2.09-18.15-4.75-32.39-5.42-12.7-.6-25,1.03-33.73,2.55-20.63,3.59-33.47,8.53-45.43,13.2-29.31,11.46-50.27,23.59-80.56,34.97-13.84,5.2-30.55,12.21-62.18,14.4,30.7,1.79,55.57-3.61,71.65-7.72,36.35-9.27,58.32-20.22,95.48-29.39,13.84-3.42,34.67-8.07,60.62-7.19,13.96.47,24.28,2.94,32.17,4.92,21.47,5.39,36.52,11.56,51.31,17.65,51.77,21.29,91.11,43.57,144.62,64.72,13.11,5.19,26.75,10.38,44.84,15.04,8.28,2.13,18.74,4.79,33.26,5.51,12.79.63,25.38-.91,34.46-2.42,20.83-3.46,33.81-8.32,45.78-12.92,29.13-11.21,49.39-23.14,78.96-34.31,13.27-5.01,29.62-11.91,60.65-13.86,30.48,1.71,55.18-3.66,71.19-7.74,36.35-9.27,58.32-20.22,95.48-29.39,13.84-3.42,34.67-8.07,60.62-7.19,13.96.47,24.27,2.94,32.17,4.92,21.47,5.39,36.52,11.56,51.3,17.65,51.78,21.29,91.12,43.57,144.62,64.72,13.12,5.19,26.75,10.38,44.84,15.04,3.78.97,8.02,2.05,12.89,3.01v-19.44c-7.43-1.02-13.58-2.48-18.76-3.76-21.87-5.4-37.26-11.61-52.31-17.73ZM1430.37,243.75c-13.92-.5-24.15-2.98-31.99-4.97-21.39-5.42-36.39-11.61-51.08-17.72-51.21-21.29-89.62-43.57-141.24-64.83-12.51-5.15-25.44-10.33-42.77-14.99-7.66-2.06-17.54-4.74-31.51-5.42-12.39-.6-24.33,1.05-32.69,2.55-20.09,3.62-32.38,8.55-43.86,13.2-28.28,11.47-48.36,23.58-77.62,34.97-13.19,5.13-29.13,12.19-60.12,14.4,30.07,1.81,54.16-3.69,69.42-7.72,35.21-9.3,56.17-20.19,92.19-29.39,13.14-3.36,33.3-8.08,58.7-7.19,13.7.48,23.7,2.97,31.3,4.92,20.99,5.41,35.65,11.57,50.08,17.64,50.63,21.31,89.12,43.55,141.47,64.72,12.8,5.18,26.09,10.37,43.79,15.04,7.99,2.11,18.14,4.79,32.39,5.51,12.48.64,24.72-.92,33.41-2.42,20.3-3.49,32.73-8.34,44.21-12.93.53-.21,1.03-.42,1.55-.63v-19.28c-8.02,2.6-16.57,5.14-26.23,7.55-13.5,3.37-33.95,7.89-59.4,6.97ZM1480.76,376.83c-21.79-5.4-37.11-11.61-52.1-17.72-52.17-21.28-91.28-43.59-143.87-64.83-12.77-5.16-25.99-10.34-43.64-14.99-7.91-2.08-18.05-4.75-32.25-5.42-12.64-.6-24.88,1.03-33.56,2.55-20.54,3.6-33.28,8.53-45.16,13.2-29.14,11.46-49.96,23.59-80.07,34.97-13.74,5.19-30.32,12.21-61.84,14.4,30.59,1.8,55.33-3.63,71.28-7.72,36.16-9.28,57.96-20.21,94.93-29.39,13.73-3.41,34.44-8.07,60.3-7.19,13.92.47,24.18,2.95,32.03,4.92,21.39,5.39,36.37,11.56,51.1,17.64,51.58,21.3,90.78,43.57,144.09,64.72,13.06,5.18,26.64,10.38,44.67,15.04,7.49,1.94,16.8,4.31,29.33,5.27v-20.43c-.84-.02-1.68-.03-2.53-.06-14.13-.5-24.62-2.96-32.71-4.97ZM1412.45,0c1.65.63,3.26,1.25,4.82,1.84,29.95,11.38,50.62,23.51,79.58,34.97,5.89,2.33,11.98,4.72,19.15,6.98v-20.54c-27.77-7.32-47.09-15.61-72.14-23.25h-31.41ZM1397.63,50.38c-15.53-4.05-39.89-9.52-70.17-7.72,31.21,2.2,47.41,9.24,60.82,14.4,29.6,11.38,49.97,23.5,78.6,34.97,11.64,4.66,24.1,9.59,44.38,13.2,1.48.26,3.06.53,4.74.79v-21.05c-9.96-1.49-18.39-3.5-25.08-5.19-36.4-9.19-57.7-20.1-93.29-29.39ZM1412.16,22.77c-15.67-4.07-40.16-9.52-70.54-7.72,31.31,2.2,47.64,9.23,61.15,14.4,29.78,11.38,50.3,23.5,79.09,34.97,9.57,3.81,19.69,7.79,34.14,11.08v-20.97c-3.66-.8-7.02-1.62-10.01-2.37-36.58-9.19-58.05-20.11-93.83-29.39ZM1490.16,0c6.86,3.1,13.98,6.17,21.68,9.2,1.37.54,2.76,1.08,4.16,1.63V0h-25.84ZM1460.76,134.99c-36.01-9.2-56.97-20.1-92.18-29.39-15.27-4.03-39.36-9.53-69.43-7.72,31,2.21,46.94,9.27,60.13,14.4,29.26,11.39,49.34,23.5,77.62,34.97,11.48,4.66,23.77,9.59,43.86,13.2,8.35,1.5,20.3,3.15,32.69,2.55.87-.04,1.72-.09,2.55-.15v-20.6c-23.77.37-42.7-4.06-55.24-7.26ZM1445.69,162.6c-35.82-9.2-56.62-20.09-91.64-29.39-15.13-4.02-39.09-9.53-69.05-7.72,30.88,2.22,46.7,9.28,59.78,14.4,29.09,11.39,49.02,23.5,77.13,34.97,11.4,4.65,23.59,9.58,43.6,13.2,8.29,1.5,20.17,3.15,32.51,2.55,6.93-.34,12.85-1.17,17.98-2.18v-19.63c-3.63.48-7.59.83-11.93.99-25.31.89-45.35-3.84-58.38-7.19ZM1413.74,216.14c-13.86-.5-24.04-2.99-31.83-4.97-21.32-5.42-36.25-11.62-50.88-17.72-51.03-21.3-89.29-43.57-140.71-64.83-12.46-5.15-25.34-10.33-42.6-14.99-7.61-2.06-17.44-4.74-31.36-5.42-12.35-.6-24.23,1.05-32.52,2.55-20,3.62-32.19,8.55-43.6,13.2-28.1,11.47-48.04,23.58-77.13,34.97-13.08,5.12-28.89,12.18-59.78,14.4,29.96,1.81,53.93-3.7,69.05-7.72,35.03-9.3,55.82-20.19,91.64-29.39,13.03-3.35,33.07-8.08,58.38-7.19,13.66.48,23.61,2.97,31.16,4.92,20.91,5.41,35.51,11.57,49.88,17.64,50.43,21.31,88.78,43.55,140.94,64.72,12.75,5.18,25.99,10.37,43.61,15.04,7.95,2.1,18.04,4.78,32.25,5.51,12.43.63,24.6-.92,33.24-2.42,20.2-3.49,32.54-8.34,43.95-12.92,6.6-2.65,12.71-5.34,18.57-8.05v-17.71c-13.05,4.62-26.43,9.2-43.17,13.4-13.39,3.36-33.72,7.89-59.09,6.97ZM1383.1,77.99c-15.39-4.04-39.62-9.52-69.79-7.72,31.1,2.21,47.17,9.26,60.47,14.4,29.43,11.39,49.66,23.5,78.11,34.97,11.56,4.66,23.94,9.59,44.12,13.2,5.45.97,12.4,2,19.99,2.45v-21.05c-16.73-1.15-30.36-4.37-40.16-6.86-36.21-9.19-57.33-20.1-92.74-29.39ZM1463.61,298.96c-14-.5-24.34-2.97-32.27-4.97-21.56-5.41-36.69-11.61-51.5-17.72-51.59-21.29-90.28-43.58-142.29-64.83-12.61-5.15-25.66-10.33-43.12-14.99-7.76-2.07-17.74-4.75-31.8-5.42-12.49-.6-24.55,1.04-33.04,2.55-20.27,3.61-32.74,8.54-44.38,13.2-28.62,11.46-49,23.58-78.6,34.97-13.41,5.15-29.61,12.19-60.81,14.4,30.28,1.8,54.63-3.66,70.16-7.72,35.6-9.29,56.89-20.2,93.29-29.39,13.38-3.38,33.76-8.08,59.34-7.19,13.79.48,23.9,2.96,31.59,4.92,21.16,5.4,35.94,11.57,50.49,17.65,51.01,21.3,89.79,43.56,142.52,64.72,12.91,5.18,26.31,10.38,44.14,15.04,8.09,2.12,18.34,4.79,32.68,5.51,12.59.63,24.94-.92,33.76-2.42,4.43-.75,8.47-1.57,12.23-2.44v-21.05c-13.3,2.97-31.14,5.93-52.39,5.17ZM368.78,460.61c-8.83-1.51-21.18-3.05-33.77-2.42-14.34.73-24.59,3.4-32.68,5.51-17.83,4.66-31.23,9.86-44.14,15.04-.21.09-.43.17-.64.26h69.35c.57-.03,1.13-.06,1.71-.08,5.27-.19,10.31-.14,15.14.08h82.87c-4.2-1.84-8.53-3.66-13.11-5.47-11.64-4.59-24.26-9.44-44.73-12.92ZM525.55,452.63c-29.23-11.18-49.19-23.1-77.98-34.31-11.81-4.6-24.61-9.45-45.26-12.92-8.95-1.51-21.43-3.05-34.11-2.42-14.43.72-24.78,3.39-32.97,5.51-17.96,4.66-31.48,9.86-44.49,15.04-45.48,18.12-80.65,37.04-122.08,55.47h36.86c22.91-10.95,45.75-21.9,71.87-32.6,14.93-6.12,30.19-12.32,51.9-17.72,8.04-2,18.48-4.47,32.57-4.97,25.82-.91,46.71,3.57,60.68,6.97,34.81,8.49,55.75,18.6,88.14,27.38,16.36,4.44,42.19,10.61,75.27,8.46h0c-31.11-1.93-47.29-8.89-60.4-13.89ZM385.54,433c-8.89-1.5-21.3-3.05-33.94-2.42-14.38.72-24.69,3.39-32.83,5.51-17.89,4.66-31.35,9.86-44.31,15.04-22.85,9.14-43.09,18.48-62.84,27.86h37.61c3.89-1.67,7.84-3.34,11.88-5,14.87-6.11,30.07-12.32,51.7-17.72,7.99-2,18.37-4.47,32.42-4.96,25.73-.91,46.51,3.57,60.36,6.97,26.13,6.4,44.37,13.73,65.58,20.71h33.7c-27.36-10.82-46.78-22.27-74.34-33.07-11.72-4.59-24.43-9.45-44.99-12.92ZM543.06,425.02c-29.4-11.17-49.52-23.1-78.47-34.31-11.89-4.6-24.78-9.46-45.52-12.92-9.02-1.51-21.55-3.05-34.29-2.42-14.47.72-24.88,3.38-33.12,5.51-18.02,4.66-31.6,9.85-44.66,15.04-53.31,21.16-92.51,43.43-144.09,64.72-14.73,6.08-29.71,12.26-51.1,17.65-.92.23-1.88.47-2.87.71h52.04c47.12-19.84,84.29-40.47,132.68-60.21,14.99-6.12,30.32-12.32,52.11-17.72,8.09-2.01,18.58-4.47,32.71-4.97,25.91-.91,46.91,3.56,61,6.97,34.99,8.49,56.09,18.6,88.65,27.38,16.5,4.45,42.48,10.6,75.67,8.46-31.21-1.92-47.52-8.87-60.74-13.89ZM603.81,438.91h0s0,0,0,0h0ZM37.41,400.11c20.74-3.47,33.63-8.32,45.52-12.92,28.95-11.21,49.07-23.14,78.47-34.31,13.22-5.02,29.53-11.98,60.74-13.89h0c-33.19-2.14-59.17,4.01-75.67,8.46-32.57,8.78-53.67,18.89-88.66,27.38-13.5,3.27-33.38,7.5-57.81,7.04v20.47c1.02.07,2.06.14,3.12.19,12.74.63,25.27-.91,34.29-2.42ZM54.17,427.71c20.82-3.46,33.81-8.32,45.78-12.92,29.12-11.21,49.38-23.14,78.96-34.31,13.33-5.03,29.77-11.98,61.09-13.89h0c-33.3-2.14-59.42,4-76.07,8.46-32.74,8.78-54.01,18.9-89.17,27.38-14.21,3.42-35.33,7.88-61.32,6.97-4.9-.17-9.35-.58-13.43-1.12v19.48c5.64,1.08,12.12,1.99,19.71,2.37,12.79.63,25.38-.91,34.46-2.42ZM0,470.67v8.33h32.51c-4.85-.99-9.21-2.03-13.02-2.98-6.97-1.73-13.4-3.52-19.49-5.35ZM592.45,466.53c27.66,1.93,43.73,7.61,56.47,12.48h31.37c-5.34-1.62-10.93-3.22-16.92-4.76-15.81-4.08-40.42-9.51-70.91-7.71ZM1278.87,452.63c-29.23-11.18-49.19-23.1-77.97-34.31-11.81-4.6-24.61-9.45-45.26-12.92-8.95-1.51-21.43-3.05-34.12-2.42-14.42.72-24.78,3.39-32.97,5.51-17.95,4.66-31.47,9.86-44.48,15.04-45.47,18.12-80.65,37.04-122.08,55.47h36.85c22.91-10.95,45.75-21.9,71.87-32.6,14.93-6.12,30.19-12.32,51.9-17.72,8.04-2,18.47-4.47,32.57-4.97,25.81-.91,46.71,3.57,60.68,6.97,34.81,8.49,55.75,18.6,88.13,27.38,16.36,4.44,42.19,10.61,75.27,8.46h0c-31.1-1.93-47.29-8.89-60.4-13.89ZM1138.87,433c-8.89-1.5-21.3-3.05-33.94-2.42-14.38.72-24.68,3.39-32.82,5.51-17.89,4.66-31.36,9.86-44.32,15.04-22.85,9.14-43.09,18.48-62.83,27.86h37.61c3.89-1.67,7.84-3.34,11.88-5,14.87-6.11,30.06-12.32,51.69-17.72,7.99-2,18.38-4.47,32.42-4.96,25.73-.91,46.51,3.57,60.37,6.97,26.13,6.4,44.37,13.73,65.58,20.71h33.71c-27.36-10.82-46.79-22.27-74.35-33.07-11.73-4.59-24.44-9.45-45-12.92ZM1296.39,425.02c-29.4-11.17-49.51-23.1-78.47-34.31-11.89-4.6-24.78-9.46-45.51-12.92-9.02-1.51-21.56-3.05-34.29-2.42-14.48.72-24.89,3.38-33.12,5.51-18.03,4.66-31.6,9.85-44.66,15.04-53.32,21.16-92.52,43.43-144.1,64.72-14.73,6.08-29.71,12.26-51.1,17.65-.92.23-1.88.47-2.87.71h52.04c47.12-19.84,84.29-40.47,132.68-60.21,14.99-6.12,30.32-12.32,52.11-17.72,8.09-2.01,18.57-4.47,32.71-4.97,25.9-.91,46.91,3.56,61,6.97,34.99,8.49,56.09,18.6,88.65,27.38,16.51,4.45,42.48,10.6,75.68,8.46-31.22-1.92-47.53-8.87-60.75-13.89ZM1357.14,438.91h0s0,0,0,0h0ZM677.88,446.63c-15.95-4.09-40.69-9.51-71.28-7.72,31.52,2.19,48.11,9.21,61.84,14.4,22.1,8.35,39.19,17.09,58.23,25.69h59.17c-4.85-.99-9.21-2.03-13.02-2.98-36.97-9.18-58.77-20.11-94.93-29.39ZM1122.11,460.61c-8.83-1.51-21.18-3.05-33.77-2.42-14.34.73-24.59,3.4-32.68,5.51-17.82,4.66-31.23,9.86-44.14,15.04-.21.09-.43.17-.64.26h69.35c.57-.03,1.13-.06,1.7-.08,5.27-.19,10.31-.14,15.14.08h82.87c-4.2-1.84-8.53-3.66-13.11-5.47-11.64-4.59-24.26-9.44-44.73-12.92ZM1355.78,466.53c27.66,1.93,43.72,7.61,56.46,12.48h31.37c-5.34-1.62-10.93-3.22-16.92-4.76-15.81-4.08-40.43-9.51-70.91-7.71ZM918.87,456.01c52.78-21.24,92.04-43.55,144.39-64.83,15.05-6.12,30.44-12.33,52.31-17.72,8.14-2.01,18.68-4.47,32.86-4.97,25.99-.91,47.11,3.55,61.32,6.97,35.17,8.48,56.43,18.6,89.17,27.38,16.66,4.46,42.77,10.6,76.08,8.46-31.32-1.91-47.76-8.86-61.09-13.89-29.58-11.17-49.84-23.1-78.96-34.31-11.97-4.61-24.96-9.46-45.78-12.92-9.08-1.51-21.67-3.05-34.46-2.42-14.52.72-24.98,3.38-33.27,5.51-18.09,4.66-31.72,9.85-44.83,15.04-53.51,21.15-92.85,43.43-144.62,64.72-14.79,6.08-29.84,12.26-51.31,17.64-7.89,1.98-18.21,4.45-32.17,4.92-25.95.88-46.78-3.77-60.62-7.19-37.16-9.17-59.13-20.12-95.48-29.39-16-4.08-40.7-9.46-71.18-7.74-31.03-1.95-47.38-8.85-60.65-13.86-29.58-11.17-49.84-23.1-78.96-34.31-11.97-4.61-24.95-9.46-45.78-12.92-9.08-1.51-21.67-3.05-34.46-2.42-14.52.72-24.98,3.38-33.26,5.51-18.09,4.66-31.72,9.86-44.84,15.04-53.5,21.15-92.85,43.43-144.62,64.72-14.79,6.08-29.84,12.26-51.31,17.64-7.9,1.98-18.21,4.45-32.17,4.92-25.95.88-46.77-3.77-60.62-7.19-12.95-3.2-24.05-6.61-34.56-10.09v18.22c3.29,1.39,6.67,2.76,10.17,4.13,11.96,4.67,24.8,9.6,45.43,13.2,8.74,1.52,21.04,3.15,33.73,2.55,14.24-.67,24.43-3.34,32.39-5.42,17.72-4.64,31-9.83,43.82-14.99,52.78-21.24,92.04-43.55,144.39-64.83,15.05-6.12,30.44-12.33,52.31-17.72,8.14-2.01,18.68-4.47,32.86-4.97,26-.91,47.12,3.55,61.32,6.97,35.17,8.48,56.43,18.6,89.17,27.38,16.57,4.44,42.52,10.54,75.59,8.49h0c31.35,2.22,47.97,9.2,61.76,14.37,30.29,11.37,51.25,23.51,80.56,34.97,11.96,4.67,24.79,9.6,45.43,13.2,8.74,1.52,21.04,3.15,33.73,2.55,14.24-.67,24.43-3.34,32.39-5.42,17.72-4.64,31-9.83,43.82-14.99Z"/>
</svg>